<svg width="1656" height="710" viewBox="0 0 1656 710" fill="none" xmlns="http://www.w3.org/2000/svg">
<path d="M140.749 554.924C194.784 464.011 322.285 406.918 441.9 419.994C502.913 426.702 559.113 449.356 614.941 470.258C670.769 491.161 729.245 511.047 790.923 511.565C852.602 512.082 918.76 489.019 947.579 443.2C962.984 418.701 963.829 384.405 937.455 368.302C908.018 350.313 866.53 365.192 829.799 365.257C768.549 365.359 719.941 322.78 692.211 277.804C664.382 232.806 648.945 182.102 612.616 141.532C561.445 84.3332 473.712 55.204 387.498 53.4882C301.285 51.7725 216.051 74.6283 137.559 105.785L140.749 554.924Z" fill="#332E30"/>
<path d="M1654.71 543.933C1622.73 495.772 1589.69 446.678 1541.23 410.726C1492.77 374.775 1424.96 353.916 1364.84 371.553C1314.08 386.476 1277.66 425.141 1232.19 450.069C1205.89 464.399 1172.37 474.065 1144.53 462.279C1116.01 450.154 1103.78 420.308 1080.27 401.653C1058.5 384.356 1028.64 377.827 999.643 373.757C970.743 369.772 940.88 367.567 914.196 357.053C887.511 346.454 863.909 325.002 862.946 299.226C861.886 271.075 887.993 246.994 917.182 235.548C946.371 224.016 979.028 221.727 1010.14 215.367C1059.47 205.277 1106.28 184.164 1142.02 152.622C1177.76 121.08 1201.65 78.5992 1205.12 34.0838H1655L1654.71 543.933Z" fill="#332E30"/>
<path d="M253.282 469.871C301.646 483.946 355.268 483.522 403.251 468.515C460.314 450.709 507.245 414.08 549.588 375.756C591.931 337.431 631.885 296.224 681.492 265.615C731.195 235.006 793.419 215.59 852.394 227.46C889.384 234.921 922.647 254.084 960.02 259.934C1078.26 278.418 1184.93 160.901 1302.4 182.946C1352.58 192.358 1392.91 226.188 1442.04 239.5C1506.28 256.967 1581.79 233.734 1620.11 184.727" stroke="#62A8B2" stroke-width="2" stroke-miterlimit="10"/>
<path d="M249.267 462.071C290.272 471.991 335.387 473.178 377.73 465.632C386.046 464.19 394.266 462.325 402.295 460.205C435.367 451.387 464.997 437.312 491.856 420.863C512.406 408.314 531.427 394.409 549.97 379.825C560.867 371.262 571.763 362.444 582.946 353.371C608.467 332.429 634.274 309.62 661.228 289.017C668.971 283.081 676.809 277.401 684.742 271.974C704.623 258.408 726.225 246.622 748.782 237.974C780.707 225.764 814.639 219.744 848.475 224.577C884.51 229.749 917.772 246.538 955.432 251.794C961.071 252.558 966.615 253.066 972.159 253.405C1008.1 255.356 1042.7 247.64 1077.2 235.854C1132.26 217.031 1186.74 187.609 1242.37 178.707C1261.49 175.654 1280.7 175.061 1300.29 178.113C1339.29 184.218 1372.65 204.228 1408.69 219.066C1419.29 223.39 1430.19 227.375 1441.47 230.258C1506.37 247.301 1581.69 227.29 1619.64 183.709" stroke="#69A3AE" stroke-width="2" stroke-miterlimit="10"/>
<path d="M245.253 454.355C286.927 462.495 332.998 463.088 376.201 456.559C384.708 455.288 393.023 453.761 401.244 451.896C434.889 444.35 465.093 432.395 492.047 418.659C512.597 408.06 531.427 396.529 550.353 383.98C561.44 376.604 572.623 368.888 584.38 360.494C611.143 341.247 638.193 317.93 664.956 296.309C672.603 290.119 680.25 284.099 688.087 278.249C707.395 263.834 727.85 250.947 749.165 241.111C779.464 227.291 811.485 218.981 844.461 221.694C879.444 224.493 912.898 239.076 950.749 243.74C956.388 244.418 962.027 244.927 967.667 245.181C1003.89 247.131 1038.49 241.196 1073.29 230.597C1128.82 213.809 1184.26 184.811 1240.17 175.061C1259.29 171.754 1278.69 170.736 1298.29 173.195C1337.38 178.113 1371.31 196.343 1407.92 210.248C1418.72 214.318 1429.71 218.049 1441.09 220.931C1506.56 237.465 1581.79 220.847 1619.45 182.607" stroke="#719DAA" stroke-width="2" stroke-miterlimit="10"/>
<path d="M241.238 446.639C283.581 452.913 330.608 453.083 374.767 447.572C383.465 446.469 391.972 445.198 400.288 443.671C434.602 437.312 465.38 427.562 492.334 416.454C512.884 407.891 531.618 398.649 550.735 388.05C561.918 381.86 573.579 375.247 585.814 367.531C613.724 349.98 642.208 326.154 668.588 303.516C676.139 297.072 683.691 290.628 691.242 284.523C709.976 269.176 729.283 255.271 749.451 244.248C778.031 228.732 808.235 217.116 840.35 218.727C874.187 220.423 907.832 231.53 945.969 235.6C951.609 236.193 957.344 236.617 962.983 236.956C999.496 238.907 1034.1 234.752 1069.08 225.425C1125.09 210.672 1181.39 182.183 1237.78 171.584C1257 168.023 1276.4 166.582 1296.09 168.447C1335.37 172.178 1369.78 188.627 1406.87 201.6C1417.77 205.415 1428.95 208.976 1440.42 211.774C1506.56 227.884 1581.59 214.487 1618.97 181.674" stroke="#7898A6" stroke-width="2" stroke-miterlimit="10"/>
<path d="M237.224 438.839C280.14 443.248 328.218 442.993 373.238 438.415C382.031 437.567 390.73 436.464 399.236 435.277C434.22 430.19 465.475 422.644 492.525 414.08C513.075 407.551 531.714 400.514 551.022 392.035C562.396 387.033 574.344 381.521 587.152 374.484C616.305 358.544 646.031 334.294 672.221 310.723C679.772 303.94 687.036 297.241 694.396 290.713C712.556 274.518 730.813 259.51 749.738 247.301C776.597 230.173 804.889 217.455 836.336 215.759C869.121 213.979 902.957 223.899 941.286 227.46C947.021 227.969 952.756 228.393 958.395 228.647C995.194 230.597 1029.8 228.223 1065.07 220.084C1121.55 207.28 1178.71 179.3 1235.49 167.854C1254.8 164.038 1274.2 162.173 1293.89 163.445C1333.37 166.073 1368.25 180.657 1405.82 192.782C1416.91 196.343 1428.18 199.734 1439.75 202.447C1506.56 218.133 1581.5 208.044 1618.39 180.572" stroke="#8092A2" stroke-width="2" stroke-miterlimit="10"/>
<path d="M233.209 431.123C276.795 433.666 325.924 432.903 371.709 429.427C380.693 428.749 389.582 427.901 398.281 427.053C433.933 423.237 465.762 417.811 492.812 411.876C513.362 407.382 531.81 402.634 551.5 396.19C563.065 392.374 575.3 387.88 588.681 381.606C618.981 367.362 650.045 342.688 676.044 318.014C683.499 310.977 690.668 303.94 697.741 297.072C715.233 280.029 732.438 263.919 750.12 250.523C775.259 231.7 801.639 216.862 832.322 212.876C864.055 208.807 897.987 216.438 936.602 219.405C942.337 219.829 948.168 220.168 953.903 220.507C990.989 222.458 1025.59 221.779 1061.15 214.996C1118.11 204.058 1176.23 176.672 1233.29 164.462C1252.69 160.392 1272.1 158.103 1291.88 158.781C1331.55 160.223 1366.92 173.026 1405.05 184.218C1416.33 187.525 1427.71 190.747 1439.46 193.375C1506.85 208.637 1581.69 201.769 1618.3 179.724" stroke="#878D9E" stroke-width="2" stroke-miterlimit="10"/>
<path d="M229.195 423.407C273.354 424.17 323.535 422.898 370.275 420.354C379.451 419.846 388.531 419.337 397.325 418.659C433.551 416.115 465.953 412.808 493.099 409.502C513.744 406.958 532.096 404.584 551.882 400.175C563.639 397.546 576.16 394.155 590.115 388.559C621.657 375.925 653.964 350.828 679.771 325.222C687.131 317.845 694.204 310.553 700.991 303.261C717.909 285.286 733.967 268.074 750.503 253.575C774.016 233.141 798.294 216.098 828.403 209.909C858.989 203.634 893.208 208.891 932.014 211.265C937.845 211.605 943.58 211.944 949.41 212.198C986.879 214.148 1021.38 215.25 1057.13 209.654C1114.58 200.752 1173.55 173.874 1231 160.731C1250.4 156.322 1269.99 153.694 1289.78 153.779C1329.64 154.033 1365.48 165.056 1404.1 175.315C1415.47 178.367 1427.04 181.335 1438.89 183.963C1506.94 198.801 1581.59 195.24 1617.92 178.452" stroke="#8F8799" stroke-width="2" stroke-miterlimit="10"/>
<path d="M225.18 415.606C270.009 414.504 321.145 412.808 368.745 411.282C378.113 410.943 387.288 410.689 396.273 410.35C433.168 409.078 466.049 407.891 493.29 407.212C513.936 406.704 532.192 406.704 552.169 404.245C564.117 402.803 576.925 400.514 591.453 395.681C624.142 384.743 657.788 359.137 683.404 332.513C690.764 324.882 697.55 317.167 704.145 309.62C720.49 290.797 735.401 272.483 750.694 256.797C772.391 234.667 794.853 215.505 824.197 207.111C853.637 198.632 888.046 201.43 927.14 203.295C932.97 203.55 938.801 203.804 944.727 204.143C982.482 206.178 1016.99 208.976 1053.02 204.652C1110.95 197.699 1170.88 171.33 1228.61 157.425C1248.11 152.761 1267.7 149.709 1287.58 149.2C1327.63 148.268 1363.95 157.51 1403.05 166.836C1414.61 169.634 1426.27 172.432 1438.22 174.976C1506.94 189.39 1581.4 189.051 1617.34 177.689" stroke="#968295" stroke-width="2" stroke-miterlimit="10"/>
<path d="M221.166 407.891C266.663 404.923 318.756 402.718 367.216 402.21C376.774 402.125 386.142 402.04 395.222 402.04C432.786 402.04 466.24 402.973 493.385 404.923C514.031 406.364 532.192 408.738 552.455 408.23C564.594 407.975 577.689 406.704 592.791 402.634C626.723 393.307 661.611 367.277 687.036 339.636C694.3 331.665 700.991 323.695 707.299 315.725C723.071 295.969 736.834 276.638 750.981 259.765C770.957 235.939 791.412 214.742 820.182 203.974C848.379 193.375 883.171 193.714 922.552 194.986C928.382 195.156 934.308 195.41 940.234 195.749C978.276 197.784 1012.78 202.363 1049.01 199.225C1107.41 194.308 1168.2 168.447 1226.31 153.609C1245.91 148.691 1265.5 145.215 1285.48 144.113C1325.62 141.993 1362.42 149.37 1402.19 157.933C1413.85 160.477 1425.7 163.105 1437.74 165.48C1507.04 179.385 1581.4 182.437 1617.06 176.417" stroke="#9E7D91" stroke-width="2" stroke-miterlimit="10"/>
<path d="M217.151 400.175C263.222 395.342 316.366 392.713 365.782 393.222C375.436 393.307 384.994 393.561 394.362 393.816C432.595 395.003 466.527 398.14 493.768 402.718C514.413 406.195 532.479 410.858 552.933 412.384C565.263 413.317 578.645 413.147 594.321 409.756C629.399 402.125 665.721 375.671 690.764 347.012C697.932 338.788 704.527 330.478 710.549 322.169C725.651 301.565 738.364 281.131 751.363 263.071C769.715 237.635 788.162 214.403 816.168 201.26C843.218 188.542 878.201 186.422 917.868 187.016C923.794 187.101 929.72 187.27 935.742 187.609C974.071 189.644 1008.58 195.919 1045.09 194.138C1103.97 191.171 1165.62 165.819 1224.11 150.218C1243.71 145.045 1263.5 141.145 1283.38 139.449C1323.71 136.143 1360.99 141.739 1401.23 149.37C1413.08 151.574 1425.03 154.118 1437.26 156.407C1507.23 169.889 1581.4 176.163 1616.77 175.569" stroke="#A5778D" stroke-width="2" stroke-miterlimit="10"/>
<path d="M213.137 392.374C259.877 385.676 313.977 382.623 364.253 384.065C374.098 384.319 383.848 384.828 393.31 385.421C432.212 387.88 466.622 393.137 493.959 400.344C514.605 405.856 532.574 412.893 553.22 416.369C565.837 418.489 579.41 419.422 595.659 416.709C631.885 410.689 669.544 383.81 694.396 354.134C701.564 345.656 707.873 337.007 713.703 328.359C728.232 306.907 739.797 285.371 751.554 266.124C768.186 238.991 784.626 213.724 811.962 198.208C837.961 183.455 873.135 178.706 912.993 178.791C918.919 178.791 924.941 178.961 930.963 179.3C969.578 181.335 1004.08 189.39 1040.88 188.881C1100.24 187.948 1162.85 163.021 1221.63 146.572C1241.32 141.145 1261.11 136.821 1281.08 134.532C1321.61 130.038 1359.36 133.853 1400.08 140.552C1412.03 142.502 1424.17 144.791 1436.5 147.08C1507.14 160.138 1581.12 169.719 1616.1 174.467" stroke="#AD7289" stroke-width="2" stroke-miterlimit="10"/>
<path d="M209.122 384.659C256.436 376.18 311.587 372.534 362.724 375.077C372.76 375.586 382.605 376.264 392.259 377.197C431.734 380.928 466.813 388.304 494.15 398.14C514.796 405.601 532.765 415.013 553.602 420.524C566.41 423.831 580.366 425.781 597.093 423.831C634.561 419.422 673.463 392.12 698.123 361.426C705.197 352.608 711.409 343.621 717.049 334.633C731.004 312.249 741.422 289.695 752.032 269.261C766.943 240.518 781.472 213.3 808.139 195.325C832.991 178.537 868.356 171.245 908.501 170.737C914.523 170.652 920.544 170.737 926.662 171.076C965.659 173.111 1000.07 182.946 1037.06 183.624C1096.89 184.727 1160.36 160.307 1219.53 143.011C1239.31 137.33 1259.1 132.497 1279.17 129.699C1319.89 124.018 1358.12 126.053 1399.41 131.903C1411.55 133.599 1423.79 135.719 1436.21 137.923C1507.42 150.557 1581.31 163.36 1616 173.535" stroke="#B46C85" stroke-width="2" stroke-miterlimit="10"/>
<path d="M205.108 376.943C253.09 366.599 309.197 362.529 361.29 366.005C371.517 366.683 381.554 367.616 391.303 368.888C431.448 373.89 467.004 383.387 494.437 395.851C515.083 405.262 532.957 417.133 553.985 424.594C566.984 429.173 581.226 432.14 598.526 430.868C637.142 428.07 677.382 400.344 701.851 368.718C708.829 359.646 714.946 350.319 720.299 340.992C733.585 317.76 743.047 294.104 752.414 272.483C765.7 242.129 778.317 212.877 804.125 192.442C827.925 173.619 863.482 163.784 903.817 162.682C909.839 162.512 915.956 162.597 922.074 162.936C961.358 164.971 995.768 176.587 1033.05 178.537C1093.45 181.589 1157.69 157.679 1217.23 139.534C1237.02 133.599 1256.9 128.342 1277.07 124.951C1317.98 118.083 1356.69 118.337 1398.46 123.255C1410.79 124.696 1423.12 126.646 1435.64 128.766C1507.52 140.976 1581.31 157.086 1615.62 172.602" stroke="#BC6781" stroke-width="2" stroke-miterlimit="10"/>
<path d="M201.093 369.142C249.649 356.932 306.808 352.439 359.761 356.932C370.179 357.78 380.407 359.052 390.347 360.578C431.161 366.853 467.291 378.384 494.723 393.646C515.369 405.092 533.148 419.337 554.367 428.664C567.558 434.429 582.086 438.414 599.96 437.906C639.722 436.803 681.301 408.569 705.579 375.925C712.557 366.514 718.387 356.932 723.548 347.182C736.261 323.017 744.577 298.343 752.701 275.535C764.267 243.485 775.068 212.368 800.11 189.475C822.859 168.701 858.511 156.153 899.134 154.542C905.156 154.287 911.369 154.287 917.486 154.627C957.057 156.746 991.467 170.058 1029.03 173.195C1089.92 178.283 1155.1 154.796 1214.94 135.888C1234.82 129.614 1254.8 124.018 1274.87 120.033C1315.97 111.978 1355.16 110.452 1397.41 114.437C1409.83 115.624 1422.35 117.404 1435.07 119.439C1507.61 131.225 1581.21 150.557 1615.24 171.499" stroke="#C3617D" stroke-width="2" stroke-miterlimit="10"/>
<path d="M197.079 361.426C246.304 347.352 304.418 342.349 358.231 347.86C368.841 348.962 379.164 350.404 389.296 352.269C430.779 359.731 467.387 373.466 494.915 391.357C515.56 404.753 533.243 421.457 554.749 432.734C568.035 439.771 582.946 444.774 601.394 444.943C642.399 445.452 685.22 416.878 709.211 383.217C716.093 373.551 721.828 363.631 726.703 353.541C738.842 328.528 746.01 302.753 752.988 278.757C762.833 245.096 771.818 212.029 796 186.677C817.793 163.869 853.541 148.776 894.355 146.572C900.472 146.233 906.589 146.233 912.898 146.572C952.756 148.691 987.165 163.784 1024.92 168.193C1086.28 175.315 1152.33 152.337 1212.55 132.497C1232.53 125.968 1252.5 119.948 1272.67 115.369C1313.96 106.043 1353.63 102.821 1396.45 105.958C1409.07 106.891 1421.78 108.417 1434.49 110.452C1507.61 121.729 1581.12 144.452 1614.76 170.737" stroke="#CB5C79" stroke-width="2" stroke-miterlimit="10"/>
<path d="M193.064 353.711C242.959 337.855 302.124 332.344 356.798 338.872C367.503 340.144 378.113 341.84 388.34 344.045C430.396 352.778 467.674 368.549 495.201 389.152C515.943 404.499 533.339 423.661 555.132 436.888C568.609 445.113 583.807 451.133 602.827 452.15C644.979 454.27 689.234 425.272 712.939 390.594C719.725 380.673 725.269 370.329 729.952 359.9C741.518 333.955 747.54 307.162 753.37 281.979C761.59 246.622 768.663 211.605 791.986 183.794C812.727 158.951 848.571 141.315 889.671 138.517C895.788 138.093 902.001 138.008 908.31 138.347C948.55 140.467 982.864 157.34 1020.91 162.936C1082.75 172.008 1149.75 149.539 1210.26 128.936C1230.33 122.152 1250.3 115.709 1270.57 110.536C1311.96 100.023 1352.2 95.0201 1395.49 97.2246C1408.21 97.9029 1421.11 99.2595 1433.92 101.125C1507.71 111.978 1581.02 137.923 1614.38 169.549" stroke="#D25775" stroke-width="2" stroke-miterlimit="10"/>
<path d="M189.05 345.91C239.518 328.189 299.735 322.254 355.268 329.715C366.165 331.157 376.87 333.192 387.288 335.651C430.014 345.656 467.769 363.546 495.297 386.778C516.038 404.16 533.339 425.696 555.323 440.873C568.991 450.285 584.476 457.407 604.07 459.103C647.369 462.834 692.962 433.412 716.475 397.716C723.262 387.457 728.614 376.858 733.011 366.09C743.908 339.297 748.973 311.401 753.466 285.032C759.965 248.064 765.318 211.096 787.78 180.826C807.566 154.033 843.505 133.684 884.892 130.377C891.105 129.868 897.318 129.783 903.722 130.123C944.249 132.242 978.563 150.981 1016.8 157.764C1079.12 168.956 1146.98 146.911 1207.87 125.374C1227.94 118.337 1248.11 111.469 1268.37 105.703C1309.95 94.0026 1350.67 87.2195 1394.44 88.4913C1407.35 88.9153 1420.35 90.1023 1433.25 91.8829C1507.71 102.312 1580.83 131.564 1613.9 168.532" stroke="#DA5170" stroke-width="2" stroke-miterlimit="10"/>
<path d="M185.036 338.194C236.172 318.608 297.345 312.164 353.835 320.728C364.922 322.423 375.819 324.628 386.428 327.341C429.823 338.618 468.151 358.628 495.679 384.489C516.421 403.821 533.626 427.731 555.896 444.858C569.756 455.542 585.527 463.597 605.695 466.056C650.237 471.397 697.072 441.552 720.394 404.923C727.085 394.409 732.342 383.471 736.452 372.279C746.775 344.638 750.694 315.64 754.039 288.084C758.819 249.42 762.451 210.587 783.957 177.774C802.882 148.946 838.726 126.053 880.4 122.068C886.613 121.474 892.921 121.305 899.325 121.644C940.139 123.763 974.453 144.282 1012.97 152.252C1075.77 165.48 1144.49 143.858 1205.76 121.559C1225.93 114.267 1246.1 106.89 1266.36 100.616C1308.13 87.6434 1349.33 79.1646 1393.68 79.5038C1406.68 79.5885 1419.87 80.6908 1432.87 82.3865C1507.9 92.3916 1580.93 124.951 1613.61 167.26" stroke="#E14C6C" stroke-width="2" stroke-miterlimit="10"/>
<path d="M181.117 330.478C232.827 309.027 295.051 302.159 352.401 311.655C363.68 313.521 374.672 315.979 385.472 319.032C429.536 331.581 468.343 353.71 495.966 382.199C516.803 403.566 533.817 429.851 556.279 448.928C570.329 460.799 586.387 469.871 607.129 473.093C652.817 479.961 700.991 449.861 724.122 412.13C730.717 401.277 735.783 390.085 739.702 378.554C749.451 349.98 752.223 319.965 754.326 291.221C757.385 250.947 759.392 210.078 779.942 174.891C797.912 144.028 833.851 118.507 875.716 114.013C881.929 113.334 888.333 113.165 894.833 113.504C935.933 115.624 970.247 137.923 1009.05 147.165C1072.33 162.427 1142.01 141.23 1203.66 118.083C1223.92 110.536 1244.09 102.736 1264.45 95.8679C1306.32 81.7082 1348.09 71.364 1392.91 70.94C1406.1 70.7704 1419.39 71.6183 1432.58 73.3141C1508.28 82.8952 1581.12 118.676 1613.52 166.412" stroke="#E94668" stroke-width="2" stroke-miterlimit="10"/>
<path d="M177.102 322.678C229.481 299.446 292.662 292.069 350.871 302.583C362.341 304.618 373.525 307.416 384.421 310.723C429.058 324.543 468.534 348.793 496.157 379.91C516.994 403.312 533.817 431.971 556.565 452.998C570.712 466.056 587.152 476.23 608.467 480.131C655.398 488.694 704.814 458.086 727.754 419.422C734.349 408.315 739.224 396.698 742.856 384.828C752.032 355.406 753.657 324.204 754.613 294.358C755.951 252.388 756.238 209.655 775.832 171.924C792.941 139.026 828.785 110.96 870.937 105.873C877.245 105.11 883.649 104.856 890.149 105.195C931.536 107.399 965.851 131.394 1004.85 141.908C1068.6 159.12 1139.14 138.517 1201.18 114.522C1221.44 106.721 1241.7 98.4965 1262.16 91.035C1304.21 75.6883 1346.46 63.5635 1391.77 62.2069C1405.15 61.7829 1418.53 62.4612 1431.82 64.0722C1508.19 73.2294 1580.93 112.317 1612.95 165.395" stroke="#F04164" stroke-width="2" stroke-miterlimit="10"/>
<path d="M173.088 314.962C226.04 289.865 290.272 282.064 349.438 293.51C361.003 295.8 372.473 298.767 383.465 302.413C428.771 317.421 468.725 343.875 496.444 377.621C517.281 402.973 534.008 434.09 557.043 457.068C571.381 471.397 588.203 482.589 609.996 487.168C658.074 497.343 708.829 466.31 731.482 426.629C737.981 415.267 742.761 403.312 746.202 391.102C754.708 360.748 755.282 328.528 755.091 297.496C754.804 253.914 753.37 209.146 771.913 169.041C788.162 134.108 824.006 103.499 866.349 97.818C872.658 96.9702 879.157 96.7158 885.752 97.055C927.522 99.2595 961.741 125.035 1001.03 136.736C1065.26 155.983 1136.75 135.803 1199.07 111.045C1219.43 102.99 1239.7 94.3417 1260.25 86.2868C1302.49 69.753 1345.22 55.8476 1391.1 53.5583C1404.58 52.88 1418.15 53.3888 1431.53 54.915C1508.47 63.5634 1581.12 105.958 1612.75 164.462" stroke="#F83B60" stroke-width="2" stroke-miterlimit="10"/>
<path d="M169.073 307.246C222.695 280.283 287.883 271.974 347.908 284.438C407.934 296.902 462.13 330.054 496.635 375.332C530.471 419.761 553.029 480.215 611.334 494.205C660.655 505.991 712.748 474.534 735.114 433.836C757.48 393.137 757.289 345.825 755.282 300.548C753.275 255.271 750.216 208.552 767.803 166.073C785.39 123.594 830.123 86.1172 881.069 88.7457C923.125 90.9502 957.344 118.507 996.915 131.479C1061.62 152.676 1133.98 133.005 1196.68 107.399C1259.39 81.793 1321.23 49.5733 1389.95 44.8251C1481.9 38.5508 1575.38 88.4065 1612.18 163.36" stroke="#FF365C" stroke-width="2" stroke-miterlimit="10"/>
<path d="M169.073 302.668C222.217 275.451 286.831 266.633 346.666 278.164C369.606 282.658 391.781 290.034 412.427 300.039C445.498 316.064 474.46 338.703 496.157 365.92C523.016 399.497 543.184 442.654 577.402 467.497C587.343 474.704 598.431 480.3 611.239 483.692C659.508 496.58 710.071 468.175 734.063 429.936C752.223 400.853 758.532 366.683 760.157 332.259C760.73 321.067 760.826 309.79 760.826 298.683C760.826 253.406 759.87 206.602 778.795 164.123C797.338 122.407 841.593 85.6086 892.156 87.6435C933.926 89.2545 968.431 115.454 1007.81 128.257C1072.23 149.285 1143.06 132.582 1204.23 110.367C1211.12 107.908 1217.9 105.28 1224.69 102.736C1278.88 82.1322 1332.89 59.5784 1392.63 57.3739C1407.73 56.7804 1423.02 57.7979 1438.03 60.0024C1512.2 71.2793 1582.36 115.2 1614.28 173.195" stroke="#FF3B5C" stroke-width="2" stroke-miterlimit="10"/>
<path d="M169.073 298.004C221.739 270.533 285.78 261.121 345.423 271.805C368.268 275.959 390.443 282.997 411.089 292.578C444.16 308.009 473.409 329.885 495.584 356.424C523.016 389.152 543.853 431.377 577.785 456.475C587.534 463.682 598.431 469.447 610.952 473.178C658.266 487.168 707.395 461.816 732.724 425.951C752.223 398.564 760.635 364.648 763.885 330.224C764.936 319.032 765.605 307.755 766.083 296.648C768.186 251.286 769.333 204.482 789.501 162.088C808.904 121.22 852.776 85.0998 902.862 86.3716C944.345 87.3891 979.041 112.147 1018.33 124.866C1082.37 145.639 1151.76 131.988 1211.5 113.165C1218.19 111.045 1224.88 108.925 1231.48 106.721C1284.24 89.2544 1336.71 70.0074 1395.11 69.753C1409.93 69.6683 1424.84 71.0249 1439.56 73.6533C1512.49 86.4564 1582.93 129.36 1616.2 182.946" stroke="#FF415D" stroke-width="2" stroke-miterlimit="10"/>
<path d="M169.169 293.426C221.261 265.785 284.824 255.78 344.276 265.53C367.121 269.261 389.2 275.959 409.846 285.201C443.013 299.954 472.453 321.152 495.106 347.012C523.112 378.893 544.713 420.185 578.263 445.537C587.917 452.829 598.622 458.679 610.856 462.664C657.214 477.672 704.814 455.372 731.673 422.05C752.414 396.275 763.12 362.613 767.899 328.359C769.524 317.167 770.671 305.89 771.627 294.782C775.737 249.336 779.082 202.532 800.493 160.138C820.756 120.118 864.246 84.5911 913.949 85.2694C955.241 85.6933 990.129 109.095 1029.22 121.729C1092.88 142.332 1160.84 131.649 1219.05 116.302C1225.55 114.606 1232.05 112.826 1238.55 110.96C1289.97 96.5463 1340.82 80.6908 1397.79 82.4714C1412.22 82.8953 1426.85 84.6759 1441.28 87.5587C1512.87 101.888 1583.7 143.774 1618.3 192.951" stroke="#FF465D" stroke-width="2" stroke-miterlimit="10"/>
<path d="M169.169 288.847C220.783 260.952 283.772 250.353 343.034 259.341C365.782 262.732 387.862 269.091 408.603 277.825C441.866 291.9 471.497 312.418 494.628 337.601C523.207 368.633 545.573 408.993 578.741 434.599C588.203 441.891 598.717 447.911 610.665 452.15C655.971 468.26 702.329 448.928 730.43 418.065C752.606 393.816 765.414 360.578 771.722 326.324C773.825 315.132 775.45 303.94 776.979 292.747C783.192 247.301 788.545 200.413 811.293 158.103C832.417 118.931 875.525 84.0824 924.75 83.9976C965.755 83.9128 1000.83 105.873 1039.83 118.337C1103.2 138.686 1169.63 131.055 1226.41 119.1C1232.72 117.744 1239.03 116.387 1245.33 114.945C1295.32 103.669 1344.64 91.1198 1400.27 94.8505C1414.42 95.7832 1428.66 97.9877 1442.9 101.21C1513.16 117.065 1584.37 157.933 1620.21 202.702" stroke="#FF4C5E" stroke-width="2" stroke-miterlimit="10"/>
<path d="M169.169 284.269C220.306 256.119 282.721 245.011 341.791 253.066C364.444 256.119 386.524 262.054 407.265 270.448C440.624 283.929 470.541 303.685 494.054 328.189C523.303 358.459 546.338 397.801 579.123 423.661C588.49 431.038 598.813 437.227 610.379 441.721C654.729 458.849 699.748 442.569 729.188 414.25C752.701 391.611 767.612 358.628 775.641 324.458C778.222 313.266 780.42 302.074 782.523 290.882C790.743 245.351 798.199 198.462 822.381 156.153C844.269 117.743 887.09 83.5736 935.933 82.8953C976.747 82.217 1012.02 102.736 1050.82 115.2C1113.81 135.38 1178.81 130.631 1234.06 122.152C1240.27 121.22 1246.39 120.202 1252.5 119.185C1301.15 110.96 1348.85 101.803 1403.14 107.484C1416.91 108.925 1430.86 111.469 1444.82 115.03C1513.73 132.412 1585.32 172.263 1622.5 212.622" stroke="#FF515E" stroke-width="2" stroke-miterlimit="10"/>
<path d="M169.169 279.69C219.828 251.286 281.765 239.585 340.453 246.792C363.011 249.505 385.09 255.016 405.927 263.071C439.286 275.874 469.49 295.037 493.481 318.778C523.303 348.199 547.103 386.609 579.505 412.724C588.777 420.1 598.813 426.459 610.187 431.207C653.582 449.437 697.263 436.125 728.041 410.265C753.084 389.152 770.002 356.593 779.56 322.423C782.714 311.316 785.39 300.039 787.971 288.847C798.294 243.316 807.757 196.343 833.277 154.118C856.026 116.556 898.465 83.0649 946.83 81.7082C987.357 80.4364 1022.82 99.5987 1061.53 111.893C1124.14 131.818 1187.7 130.123 1241.51 125.035C1247.53 124.442 1253.46 123.848 1259.48 123.17C1306.7 118.083 1352.86 112.232 1405.72 119.863C1419.1 121.813 1432.77 124.781 1446.44 128.596C1514.02 147.504 1585.99 186.253 1624.42 222.288" stroke="#FF575F" stroke-width="2" stroke-miterlimit="10"/>
<path d="M169.264 275.027C219.35 246.368 280.809 234.158 339.306 240.433C361.768 242.807 383.848 247.979 404.685 255.525C438.139 267.65 468.534 286.134 493.099 309.196C523.494 337.77 547.963 375.247 580.079 401.616C589.159 409.078 599.1 415.522 610.092 420.524C652.435 439.856 695.065 429.597 726.894 406.195C753.466 386.693 772.391 354.474 783.479 320.389C787.111 309.281 790.361 298.004 793.419 286.812C805.845 241.196 817.22 194.223 844.174 151.998C867.687 115.2 909.839 82.4714 957.822 80.3517C998.062 78.5711 1033.71 96.2919 1072.33 108.417C1134.65 128.088 1196.68 129.444 1248.97 127.749C1254.8 127.579 1260.63 127.325 1266.36 127.07C1312.15 125.035 1356.78 122.492 1408.3 132.158C1421.4 134.616 1434.68 138.008 1448.07 142.163C1514.4 162.597 1586.66 200.328 1626.42 231.954" stroke="#FF5C5F" stroke-width="2" stroke-miterlimit="10"/>
<path d="M169.264 270.448C218.872 241.62 279.758 228.732 338.063 234.158C360.525 236.193 382.509 240.942 403.346 248.149C436.896 259.68 467.482 277.401 492.525 299.785C523.494 327.511 548.728 364.055 580.461 390.679C589.446 398.14 599.1 404.753 609.901 410.095C651.288 430.529 692.771 423.322 725.747 402.295C753.848 384.404 774.685 352.439 787.398 318.439C791.603 307.331 795.331 296.054 798.868 284.862C813.301 239.246 826.682 192.188 855.07 150.048C879.253 114.098 921.213 82.0475 968.814 79.2495C1008.86 76.8754 1044.71 93.1548 1083.13 105.28C1145.07 124.781 1205.67 129.105 1256.52 130.886C1262.16 131.055 1267.8 131.225 1273.44 131.395C1317.88 132.497 1360.89 133.26 1410.98 144.961C1423.69 147.928 1436.69 151.744 1449.88 156.153C1514.88 178.113 1587.52 214.827 1628.53 242.044" stroke="#FF6160" stroke-width="2" stroke-miterlimit="10"/>
<path d="M169.264 265.869C218.394 236.787 278.707 223.39 336.821 227.884C359.187 229.58 381.171 233.989 402.104 240.772C435.653 251.625 466.527 268.667 492.047 290.373C523.589 317.251 549.492 352.863 580.939 379.741C589.733 387.287 599.291 393.985 609.709 399.581C650.141 421.118 690.572 416.963 724.504 398.394C754.231 382.115 776.979 350.489 791.221 316.488C795.905 305.381 800.11 294.189 804.22 282.912C820.756 237.211 836.049 190.068 865.871 148.013C890.818 112.826 932.492 81.5387 979.615 77.9776C1019.38 75.01 1055.41 89.9327 1093.74 101.888C1155.3 121.135 1214.46 128.512 1263.88 133.684C1269.42 134.277 1274.87 134.786 1280.32 135.295C1323.33 139.449 1364.81 143.604 1413.56 157.255C1425.89 160.731 1438.6 164.886 1451.51 169.634C1515.16 193.121 1588.09 228.817 1630.53 251.625" stroke="#FF6760" stroke-width="2" stroke-miterlimit="10"/>
<path d="M169.264 261.291C217.916 231.954 277.655 217.964 335.578 221.61C357.849 222.966 379.737 226.951 400.766 233.311C434.411 243.485 465.475 259.849 491.474 280.962C523.685 306.992 550.257 341.671 581.321 368.803C590.019 376.349 599.291 383.302 609.518 389.067C648.898 411.621 688.374 410.689 723.357 394.409C754.708 379.826 779.369 348.369 795.14 314.538C800.301 303.431 805.08 292.239 809.668 280.962C828.212 235.261 845.512 188.033 876.768 146.063C902.384 111.639 943.867 81.03 990.607 76.8753C1030.08 73.399 1066.4 86.8804 1104.54 98.666C1165.81 117.744 1223.35 128.003 1271.33 136.651C1276.69 137.584 1281.94 138.517 1287.2 139.449C1328.87 146.741 1368.73 154.203 1416.14 169.804C1428.18 173.789 1440.51 178.367 1453.13 183.455C1515.45 208.467 1588.76 243.061 1632.44 261.545" stroke="#FF6C61" stroke-width="2" stroke-miterlimit="10"/>
<path d="M169.36 256.712C217.438 227.121 276.699 212.622 334.431 215.335C356.606 216.353 378.495 219.914 399.523 225.934C433.264 235.515 464.615 251.201 490.996 271.55C523.781 296.732 551.117 330.478 581.799 357.78C590.306 365.411 599.482 372.449 609.327 378.554C647.751 402.21 686.271 404.414 722.115 390.509C755.186 377.706 781.567 346.419 798.963 312.588C804.698 301.565 809.955 290.288 815.021 279.012C835.667 233.226 854.879 185.914 887.664 144.028C913.949 110.367 955.241 80.5212 1001.5 75.6882C1040.79 71.6183 1077.2 83.6583 1115.25 95.444C1176.13 114.267 1232.24 127.579 1278.79 139.619C1283.95 140.975 1289.11 142.247 1294.18 143.604C1334.42 153.948 1372.75 164.801 1418.72 182.352C1430.38 186.846 1442.43 191.849 1454.85 197.19C1515.93 223.729 1589.53 257.306 1634.55 271.296" stroke="#FF7261" stroke-width="2" stroke-miterlimit="10"/>
<path d="M169.36 252.134C216.96 222.373 275.648 207.196 333.189 209.061C355.268 209.739 377.157 212.961 398.281 218.472C432.117 227.375 463.659 242.383 490.518 262.054C523.876 286.388 551.978 319.202 582.277 346.758C590.689 354.389 599.578 361.596 609.136 367.955C646.604 392.798 684.168 398.225 720.968 386.439C755.76 375.417 783.957 344.214 802.978 310.468C809.191 299.446 815.021 288.169 820.565 276.892C843.218 231.106 864.342 183.709 898.656 141.908C925.61 109.01 966.711 79.8429 1012.59 74.3316C1051.59 69.6682 1088.2 80.3517 1126.14 91.9677C1186.65 110.621 1241.32 126.901 1286.34 142.332C1291.41 144.028 1296.28 145.724 1301.25 147.42C1340.06 160.901 1376.86 175.061 1421.49 194.647C1432.87 199.649 1444.53 205.076 1456.67 210.757C1516.41 238.822 1590.39 271.381 1636.75 280.962" stroke="#FF7762" stroke-width="2" stroke-miterlimit="10"/>
<path d="M169.36 247.47C216.482 217.455 274.596 201.769 331.946 202.702C353.93 203.041 375.819 205.839 396.942 211.011C430.779 219.236 462.608 233.565 489.944 252.557C523.876 276.129 552.742 307.925 582.659 335.735C590.975 343.451 599.673 350.743 608.945 357.356C645.362 383.302 682.066 391.95 719.725 382.454C756.238 373.212 786.251 342.179 806.801 308.518C813.587 297.496 819.896 286.219 825.917 274.942C850.673 229.071 873.613 181.589 909.457 139.873C937.08 107.738 977.989 79.3341 1023.39 73.1445C1062.2 67.8876 1099 77.2143 1136.66 88.7456C1196.87 107.145 1250.02 126.477 1293.6 145.385C1298.48 147.504 1303.26 149.539 1307.94 151.659C1345.41 168.193 1380.49 185.744 1423.79 207.28C1434.78 212.792 1446.15 218.557 1458.01 224.577C1516.41 254.168 1590.77 285.71 1638.37 290.882" stroke="#FF7D62" stroke-width="2" stroke-miterlimit="10"/>
<path d="M169.456 242.892C216.1 212.622 273.641 196.343 330.799 196.427C352.783 196.427 374.576 198.886 395.7 203.635C429.632 211.266 461.652 224.832 489.466 243.146C524.067 265.869 553.602 296.733 583.137 324.798C591.262 332.513 599.769 340.06 608.754 346.928C644.215 373.975 679.963 386.015 718.578 378.554C756.716 371.262 788.545 340.144 810.72 306.568C817.984 295.546 824.77 284.353 831.461 272.992C858.224 227.121 883.076 179.385 920.449 137.923C948.741 106.551 989.459 78.8255 1034.48 71.9576C1073 66.1072 1109.99 74.0773 1147.55 85.439C1207.39 103.584 1259.1 125.883 1301.15 148.267C1305.84 150.726 1310.43 153.27 1315.01 155.729C1351.05 175.4 1384.6 196.258 1426.56 219.744C1437.17 225.764 1448.26 231.954 1459.82 238.228C1516.88 269.346 1591.63 299.785 1640.57 300.633" stroke="#FF8263" stroke-width="2" stroke-miterlimit="10"/>
<path d="M169.456 238.313C215.526 207.789 272.589 191.001 329.557 190.153C351.445 189.814 373.238 191.849 394.457 196.173C428.485 203.126 460.696 216.014 488.988 233.65C524.163 255.525 554.463 285.456 583.615 313.775C591.644 321.576 599.96 329.207 608.658 336.329C643.068 364.479 677.86 379.91 717.527 374.569C757.385 369.227 791.03 338.109 814.734 304.533C822.477 293.511 829.836 282.319 837.005 270.957C865.871 225.001 892.539 177.18 931.441 135.804C960.307 105.11 1000.93 78.1472 1045.57 70.6858C1083.8 64.2418 1121.08 70.7706 1158.45 82.0475C1218 100.023 1268.18 125.29 1308.8 151.066C1313.29 153.948 1317.79 156.831 1322.09 159.629C1356.78 182.437 1388.71 206.602 1429.33 232.039C1439.65 238.567 1450.36 245.181 1461.73 251.795C1517.55 284.438 1592.59 313.86 1642.77 310.299" stroke="#FF8763" stroke-width="2" stroke-miterlimit="10"/>
<path d="M169.456 233.734C215.048 202.956 271.538 185.574 328.314 183.879C350.107 183.2 371.9 184.896 393.119 188.796C427.242 195.071 459.74 207.28 488.415 224.238C524.163 245.266 555.227 274.263 583.998 302.837C591.931 310.638 599.96 318.438 608.371 325.815C641.73 355.067 675.566 373.975 716.189 370.584C757.672 367.192 793.228 336.075 818.462 302.498C826.778 291.56 834.616 280.283 842.262 268.922C873.135 222.881 901.619 174.891 942.146 133.769C971.586 103.838 1012.11 77.5536 1056.27 69.4987C1094.22 62.4612 1131.69 67.6333 1168.96 78.8254C1228.13 96.5463 1276.88 124.866 1315.97 154.033C1320.37 157.255 1324.57 160.562 1328.78 163.784C1362.04 189.644 1392.44 217.116 1431.63 244.672C1441.57 251.625 1451.98 258.662 1463.07 265.615C1517.55 299.7 1592.97 328.189 1644.49 320.219" stroke="#FF8D64" stroke-width="2" stroke-miterlimit="10"/>
<path d="M169.456 229.156C214.571 198.208 270.486 180.233 327.071 177.604C348.769 176.587 370.562 177.859 391.876 181.42C426 187.101 458.784 198.632 487.937 214.827C524.259 235.006 556.088 263.071 584.476 291.9C592.218 299.785 600.056 307.755 608.276 315.386C640.678 345.74 673.463 368.04 715.137 366.768C758.341 365.411 795.618 334.124 822.477 300.718C831.27 289.78 839.681 278.503 847.806 267.141C880.782 221.101 911.082 172.941 953.138 131.903C983.247 102.651 1023.58 77.1296 1067.36 68.3964C1105.11 60.7654 1142.68 64.5809 1179.86 75.6034C1238.64 93.1547 1285.96 124.442 1323.62 157.001C1327.82 160.647 1331.93 164.292 1335.95 167.938C1367.78 196.936 1396.64 227.714 1434.49 257.221C1444.15 264.682 1454.28 272.144 1464.98 279.436C1518.13 315.047 1593.92 342.518 1646.69 330.139" stroke="#FF9264" stroke-width="2" stroke-miterlimit="10"/>
<path d="M169.551 224.577C214.188 193.375 269.531 174.806 325.829 171.33C347.431 169.973 369.223 170.821 390.538 173.958C424.757 178.961 457.733 189.814 487.364 205.33C524.259 224.662 556.757 251.71 584.858 280.877C592.505 288.762 600.151 296.902 607.989 304.787C639.34 336.329 671.265 360.324 713.799 362.783C758.436 365.327 797.816 332.089 826.204 298.683C835.571 287.745 844.365 276.468 853.063 265.106C888.046 218.981 920.162 170.567 963.939 129.868C994.621 101.294 1034.86 76.6209 1078.16 67.2094C1115.63 58.9849 1153.48 61.3589 1190.47 72.3815C1248.97 89.6784 1294.75 124.018 1330.88 159.968C1334.9 163.953 1338.81 168.023 1342.64 172.008C1373.13 204.058 1400.37 238.228 1436.79 269.685C1446.06 277.655 1455.9 285.54 1466.42 293.087C1518.22 330.224 1594.4 356.678 1648.5 339.89" stroke="#FF9865" stroke-width="2" stroke-miterlimit="10"/>
<path d="M169.551 219.914C213.615 188.457 268.479 169.38 324.586 164.971C346.092 163.275 367.885 163.784 389.2 166.497C423.514 170.906 456.682 180.996 486.79 195.834C524.354 214.318 557.521 240.433 585.24 269.855C592.696 277.825 600.151 286.049 607.702 294.189C638.002 326.833 668.779 356.085 712.556 358.713C758.914 361.511 800.11 329.885 830.123 296.563C839.968 285.625 849.335 274.348 858.511 262.987C895.597 216.862 929.434 168.193 974.835 127.749C1006.09 99.8531 1046.24 76.0275 1089.15 65.8529C1126.43 57.0348 1164.38 58.0523 1201.27 68.9053C1259.38 86.0326 1303.74 123.255 1338.43 162.766C1342.26 167.175 1346.08 171.584 1349.71 175.993C1378.77 211.181 1404.48 248.657 1439.56 282.064C1448.45 290.543 1458.01 298.852 1468.23 306.653C1518.7 345.317 1595.17 370.668 1650.6 349.556" stroke="#FF9D65" stroke-width="2" stroke-miterlimit="10"/>
<path d="M169.551 215.335C213.137 183.624 267.428 163.953 323.344 158.696C344.85 156.661 366.547 156.746 387.958 159.036C422.272 162.766 455.726 172.178 486.312 186.338C524.45 203.974 558.381 229.156 585.718 258.832C593.078 266.802 600.247 275.281 607.607 283.675C636.855 317.506 666.581 350.149 711.409 354.813C759.296 359.731 802.404 327.935 834.042 294.698C844.365 283.76 854.305 272.568 863.959 261.121C903.053 214.911 938.705 165.988 985.732 125.798C1017.56 98.5811 1057.61 75.5186 1100.05 64.7504C1137.04 55.3389 1175.27 54.9997 1211.98 65.6831C1269.71 82.5561 1312.62 122.831 1345.79 165.734C1349.52 170.482 1353.06 175.315 1356.59 180.148C1384.31 218.388 1408.4 259.256 1442.14 294.613C1450.74 303.6 1459.92 312.249 1469.86 320.473C1519.08 360.663 1595.84 384.998 1652.61 359.476" stroke="#FFA366" stroke-width="2" stroke-miterlimit="10"/>
<path d="M169.647 210.757C229.29 166.582 309.389 144.706 386.715 151.659C464.041 158.527 537.64 194.053 586.196 247.894C622.517 288.254 652.817 342.688 710.262 350.828C759.583 357.865 804.794 325.815 837.961 292.663C892.825 237.72 935.933 173.535 996.628 123.764C1057.42 73.9926 1144.21 39.5683 1222.78 62.3765C1286.63 80.8604 1330.59 132.327 1363.57 184.218C1396.55 236.109 1423.69 292.408 1471.58 334.209C1519.47 376.01 1596.6 399.242 1654.71 369.312" stroke="#FFA866" stroke-width="2" stroke-miterlimit="10"/>
</svg>
